<svg viewBox="0 84 1480 876" xmlns="http://www.w3.org/2000/svg" role="img" aria-label="Delta-IRIS world model with audit instrumentation"><defs><marker id="arrW" viewBox="0 0 10 10" refX="9" refY="5" markerWidth="6.5" markerHeight="6.5" orient="auto"><path d="M0,0 L10,5 L0,10 z" fill="#6b6460"></path></marker><marker id="arrG" viewBox="0 0 10 10" refX="9" refY="5" markerWidth="6.5" markerHeight="6.5" orient="auto"><path d="M0,0 L10,5 L0,10 z" fill="#2e9e3e"></path></marker><marker id="arrO" viewBox="0 0 10 10" refX="9" refY="5" markerWidth="6.5" markerHeight="6.5" orient="auto"><path d="M0,0 L10,5 L0,10 z" fill="#6b6460"></path></marker></defs><rect x="0" y="84" width="1480" height="876" fill="#ffffff"></rect><g opacity="1"><rect x="640" y="100" width="500" height="40" rx="7" fill="#ffffff" stroke="#9a938e" stroke-width="1.2"></rect><text x="880" y="125" font-family="'IBM Plex Mono', monospace" font-size="14.8" fill="#1f1a17" text-anchor="middle">tokenizer codes  c⁰_t..c³_t  (codebook, 1024)</text><path d="M 890 140 Q 781.5 164 673 182" fill="none" stroke="#9a938e" stroke-width="1" marker-end="url(#arrW)"></path><path d="M 890 140 Q 853.5 164 817 182" fill="none" stroke="#9a938e" stroke-width="1" marker-end="url(#arrW)"></path><path d="M 890 140 Q 925.5 164 961 182" fill="none" stroke="#9a938e" stroke-width="1" marker-end="url(#arrW)"></path><path d="M 890 140 Q 997.5 164 1105 182" fill="none" stroke="#9a938e" stroke-width="1" marker-end="url(#arrW)"></path><text x="320" y="176" font-family="'IBM Plex Sans', sans-serif" font-size="14.2" fill="#6f6661" font-style="italic" text-anchor="start">one timestep block</text><rect x="320" y="188" width="130" height="58" rx="8" fill="#f4a261"></rect><text x="385" y="213" font-family="'IBM Plex Mono', monospace" font-size="17.1" fill="#4a2c0a" font-weight="600" text-anchor="middle">frame_t</text><text x="385" y="232" font-family="'IBM Plex Mono', monospace" font-size="12.4" fill="#4a2c0a" text-anchor="middle">frame_cnn(x_t)</text><rect x="464" y="188" width="130" height="58" rx="8" fill="#e76f51"></rect><text x="529" y="213" font-family="'IBM Plex Mono', monospace" font-size="17.1" fill="#ffffff" font-weight="600" text-anchor="middle">action_t</text><text x="529" y="232" font-family="'IBM Plex Mono', monospace" font-size="12.4" fill="#ffffff" text-anchor="middle">act_emb(a_t)</text><rect x="608" y="188" width="130" height="58" rx="8" fill="#2a9d8f"></rect><text x="673" y="222" font-family="'IBM Plex Mono', monospace" font-size="17.1" fill="#ffffff" font-weight="600" text-anchor="middle">lat₀</text><rect x="752" y="188" width="130" height="58" rx="8" fill="#2a9d8f"></rect><text x="817" y="222" font-family="'IBM Plex Mono', monospace" font-size="17.1" fill="#ffffff" font-weight="600" text-anchor="middle">lat₁</text><rect x="896" y="188" width="130" height="58" rx="8" fill="#2a9d8f"></rect><text x="961" y="222" font-family="'IBM Plex Mono', monospace" font-size="17.1" fill="#ffffff" font-weight="600" text-anchor="middle">lat₂</text><rect x="1040" y="188" width="130" height="58" rx="8" fill="#2a9d8f"></rect><text x="1105" y="222" font-family="'IBM Plex Mono', monospace" font-size="17.1" fill="#ffffff" font-weight="600" text-anchor="middle">lat₃</text></g><g opacity="1"><line x1="385" y1="246" x2="385" y2="296" stroke="#6b6460" stroke-width="1.4" marker-end="url(#arrW)"></line><line x1="529" y1="246" x2="529" y2="296" stroke="#6b6460" stroke-width="1.4" marker-end="url(#arrW)"></line><line x1="673" y1="246" x2="673" y2="296" stroke="#6b6460" stroke-width="1.4" marker-end="url(#arrW)"></line><line x1="817" y1="246" x2="817" y2="296" stroke="#6b6460" stroke-width="1.4" marker-end="url(#arrW)"></line><line x1="961" y1="246" x2="961" y2="296" stroke="#6b6460" stroke-width="1.4" marker-end="url(#arrW)"></line><line x1="1105" y1="246" x2="1105" y2="296" stroke="#6b6460" stroke-width="1.4" marker-end="url(#arrW)"></line><rect x="320" y="300" width="850" height="64" rx="9" fill="#46627a"></rect><text x="745" y="326" font-family="'IBM Plex Sans', sans-serif" font-size="17.7" fill="#ffffff" font-weight="600" text-anchor="middle">Transformer block 0</text><text x="745" y="346" font-family="'IBM Plex Sans', sans-serif" font-size="13" fill="#dbe4ec" text-anchor="middle">causal self-attention (8 heads, d = 512) + MLP</text><rect x="320" y="404" width="850" height="64" rx="9" fill="#46627a"></rect><text x="745" y="430" font-family="'IBM Plex Sans', sans-serif" font-size="17.7" fill="#ffffff" font-weight="600" text-anchor="middle">Transformer block 1</text><text x="745" y="450" font-family="'IBM Plex Sans', sans-serif" font-size="13" fill="#dbe4ec" text-anchor="middle">causal self-attention (8 heads, d = 512) + MLP</text><rect x="320" y="508" width="850" height="64" rx="9" fill="#46627a"></rect><text x="745" y="534" font-family="'IBM Plex Sans', sans-serif" font-size="17.7" fill="#ffffff" font-weight="600" text-anchor="middle">Transformer block 2</text><text x="745" y="554" font-family="'IBM Plex Sans', sans-serif" font-size="13" fill="#dbe4ec" text-anchor="middle">causal self-attention (8 heads, d = 512) + MLP</text><line x1="745" y1="364" x2="745" y2="400" stroke="#6b6460" stroke-width="1.8" marker-end="url(#arrW)"></line><line x1="745" y1="468" x2="745" y2="504" stroke="#6b6460" stroke-width="1.8" marker-end="url(#arrW)"></line><rect x="320" y="600" width="850" height="36" rx="7" fill="#6b8299"></rect><text x="745" y="622.5" font-family="'IBM Plex Sans', sans-serif" font-size="14.8" fill="#ffffff" font-weight="600" text-anchor="middle">final LayerNorm</text><line x1="745" y1="572" x2="745" y2="596" stroke="#6b6460" stroke-width="1.8" marker-end="url(#arrW)"></line><line x1="500" y1="636" x2="500" y2="676" stroke="#6b6460" stroke-width="1.4" marker-end="url(#arrW)"></line><rect x="405" y="680" width="190" height="56" rx="7" fill="#54748e"></rect><text x="500" y="704" font-family="'IBM Plex Mono', monospace" font-size="15.9" fill="#ffffff" font-weight="600" text-anchor="middle">head_rewards</text><text x="500" y="722" font-family="'IBM Plex Sans', sans-serif" font-size="12.4" fill="#dbe4ec" text-anchor="middle">reads action pos.</text><line x1="500" y1="736" x2="500" y2="768" stroke="#6b6460" stroke-width="1.4" marker-end="url(#arrW)"></line><line x1="745" y1="636" x2="745" y2="676" stroke="#6b6460" stroke-width="1.4" marker-end="url(#arrW)"></line><rect x="650" y="680" width="190" height="56" rx="7" fill="#54748e"></rect><text x="745" y="704" font-family="'IBM Plex Mono', monospace" font-size="15.9" fill="#ffffff" font-weight="600" text-anchor="middle">head_ends</text><text x="745" y="722" font-family="'IBM Plex Sans', sans-serif" font-size="12.4" fill="#dbe4ec" text-anchor="middle">reads action pos.</text><line x1="745" y1="736" x2="745" y2="768" stroke="#6b6460" stroke-width="1.4" marker-end="url(#arrW)"></line><line x1="1010" y1="636" x2="1010" y2="676" stroke="#6b6460" stroke-width="1.4" marker-end="url(#arrW)"></line><rect x="875" y="680" width="270" height="56" rx="7" fill="#54748e"></rect><text x="1010" y="704" font-family="'IBM Plex Mono', monospace" font-size="15.9" fill="#ffffff" font-weight="600" text-anchor="middle">head_latents</text><text x="1010" y="722" font-family="'IBM Plex Sans', sans-serif" font-size="12.4" fill="#dbe4ec" text-anchor="middle">reads pos. 1–4, autoregressive</text><line x1="1010" y1="736" x2="1010" y2="768" stroke="#6b6460" stroke-width="1.4" marker-end="url(#arrW)"></line><rect x="425" y="772" width="150" height="46" rx="7" fill="#dcebf7" stroke="#a9c4da" stroke-width="1"></rect><text x="500" y="800" font-family="'IBM Plex Mono', monospace" font-size="16.5" fill="#1d2b36" font-weight="500" text-anchor="middle">r̂_t</text><rect x="670" y="772" width="150" height="46" rx="7" fill="#dcebf7" stroke="#a9c4da" stroke-width="1"></rect><text x="745" y="800" font-family="'IBM Plex Mono', monospace" font-size="16.5" fill="#1d2b36" font-weight="500" text-anchor="middle">d̂_t</text><rect x="875" y="772" width="270" height="46" rx="7" fill="#dcebf7" stroke="#a9c4da" stroke-width="1"></rect><text x="1010" y="800" font-family="'IBM Plex Mono', monospace" font-size="14.8" fill="#1d2b36" font-weight="500" text-anchor="middle">sampled codes  ĉ⁰..ĉ³</text><rect x="595" y="880" width="300" height="56" rx="7" fill="#ffffff" stroke="#9a938e" stroke-width="1.2"></rect><text x="745" y="903" font-family="'IBM Plex Sans', sans-serif" font-size="15.3" fill="#33302d" font-weight="600" text-anchor="middle">tokenizer decoder</text><text x="745" y="922" font-family="'IBM Plex Mono', monospace" font-size="12.4" fill="#6f6661" text-anchor="middle">x̂_t+1  from  (x_t, a_t, ĉ)</text><rect x="960" y="880" width="260" height="56" rx="7" fill="#ffffff" stroke="#9a938e" stroke-width="1.2"></rect><text x="1090" y="903" font-family="'IBM Plex Sans', sans-serif" font-size="15.3" fill="#33302d" font-weight="600" text-anchor="middle">actor–critic</text><text x="1090" y="922" font-family="'IBM Plex Mono', monospace" font-size="12.4" fill="#6f6661" text-anchor="middle">a_t+1  from  x̂_t+1</text><path d="M 950 818 Q 880 866 800 876" fill="none" stroke="#6b6460" stroke-width="1.4" marker-end="url(#arrW)"></path><line x1="895" y1="908" x2="956" y2="908" stroke="#6b6460" stroke-width="1.4" marker-end="url(#arrW)"></line><path d="M 1220 908 L 1428 908 L 1428 160 L 1182 160" fill="none" stroke="#6b6460" stroke-width="1.4" marker-end="url(#arrW)"></path><text x="0" y="0" font-family="'IBM Plex Sans', sans-serif" font-size="14.2" fill="#6f6661" text-anchor="middle" transform="translate(1452 534) rotate(90)">imagination loop (12 steps)</text></g><circle cx="1140" cy="120" r="6.5" fill="#1f77b4" stroke="#1f1a17" stroke-width="1"></circle><text x="1154" y="124" font-family="'IBM Plex Sans', sans-serif" font-size="13.6" fill="#1f77b4" font-weight="600" text-anchor="start">raw_codes tap (codebook vectors)</text><circle cx="320" cy="217" r="6.5" fill="#1f77b4" stroke="#1f1a17" stroke-width="1"></circle><text x="304" y="213" font-family="'IBM Plex Sans', sans-serif" font-size="13.6" fill="#1f77b4" font-weight="600" text-anchor="end">frame_emb tap</text><text x="304" y="228" font-family="'IBM Plex Sans', sans-serif" font-size="12.4" fill="#1f77b4" text-anchor="end">(input-encoder control)</text><circle cx="1170" cy="217" r="6.5" fill="#1f77b4" stroke="#1f1a17" stroke-width="1"></circle><text x="1184" y="221" font-family="'IBM Plex Sans', sans-serif" font-size="13.6" fill="#1f77b4" font-weight="600" text-anchor="start">wm_latents_emb tap (mean of 4)</text><text x="304" y="282" font-family="'IBM Plex Sans', sans-serif" font-size="13" fill="#6f6661" font-style="italic" text-anchor="end">sequence = 21 timestep</text><text x="304" y="297" font-family="'IBM Plex Sans', sans-serif" font-size="13" fill="#6f6661" font-style="italic" text-anchor="end">blocks (126 tokens)</text><rect x="306" y="288" width="878" height="296" rx="10" fill="none" stroke="#9467bd" stroke-width="1.8" stroke-dasharray="7 5"></rect><text x="1196" y="268" font-family="'IBM Plex Sans', sans-serif" font-size="13" fill="#9467bd" font-weight="600" text-anchor="start">activation patching cells</text><text x="1196" y="283" font-family="'IBM Plex Sans', sans-serif" font-size="12.4" fill="#9467bd" text-anchor="start">(block × timestep × token-type)</text><circle cx="1170" cy="332" r="6.5" fill="#1f77b4" stroke="#1f1a17" stroke-width="1"></circle><text x="1196" y="336" font-family="'IBM Plex Sans', sans-serif" font-size="13.6" fill="#1f77b4" font-weight="600" text-anchor="start">block-0 output tap</text><circle cx="1170" cy="436" r="6.5" fill="#1f77b4" stroke="#1f1a17" stroke-width="1"></circle><text x="1196" y="440" font-family="'IBM Plex Sans', sans-serif" font-size="13.6" fill="#1f77b4" font-weight="600" text-anchor="start">block-1 output tap</text><circle cx="1170" cy="540" r="6.5" fill="#1f77b4" stroke="#1f1a17" stroke-width="1"></circle><text x="1196" y="544" font-family="'IBM Plex Sans', sans-serif" font-size="13.6" fill="#1f77b4" font-weight="600" text-anchor="start">block-2 output tap</text><text x="1196" y="372" font-family="'IBM Plex Sans', sans-serif" font-size="12.4" fill="#1f77b4" text-anchor="start">blue taps: linear probes + CAVs</text><text x="1196" y="387" font-family="'IBM Plex Sans', sans-serif" font-size="12.4" fill="#1f77b4" text-anchor="start">(47 targets, episode-disjoint AUROC)</text><circle cx="1170" cy="618" r="6.5" fill="#1f77b4" stroke="#1f1a17" stroke-width="1"></circle><text x="1196" y="622" font-family="'IBM Plex Sans', sans-serif" font-size="13.6" fill="#1f77b4" font-weight="600" text-anchor="start">final tap</text><rect x="1240" y="455" width="170" height="75" rx="8" fill="#ffffff" stroke="#2e9e3e" stroke-width="2"></rect><text x="1325" y="478" font-family="'IBM Plex Sans', sans-serif" font-size="15.9" fill="#2e9e3e" font-weight="600" text-anchor="middle">TopK SAE</text><text x="1325" y="496" font-family="'IBM Plex Sans', sans-serif" font-size="12.4" fill="#2e9e3e" text-anchor="middle">2048 feats, k = 16</text><text x="1325" y="511" font-family="'IBM Plex Sans', sans-serif" font-size="12.4" fill="#2e9e3e" text-anchor="middle">FVU 0.043</text><path d="M 1178 444 Q 1228 470 1236 488" fill="none" stroke="#2e9e3e" stroke-width="1.8" marker-end="url(#arrG)"></path><circle cx="320" cy="436" r="7" fill="#d62728" stroke="#1f1a17" stroke-width="1"></circle><text x="296" y="410" font-family="'IBM Plex Sans', sans-serif" font-size="13.6" fill="#d62728" font-weight="600" text-anchor="end">projection ablation</text><text x="296" y="428" font-family="'IBM Plex Mono', monospace" font-size="13" fill="#d62728" text-anchor="end">h ← h − (h·d̂) d̂</text><text x="296" y="445" font-family="'IBM Plex Sans', sans-serif" font-size="12.4" fill="#d62728" text-anchor="end">one-step + sustained</text><text x="296" y="460" font-family="'IBM Plex Sans', sans-serif" font-size="12.4" fill="#d62728" text-anchor="end">during imagination</text><rect x="869" y="766" width="282" height="58" rx="9" fill="none" stroke="#e07b00" stroke-width="2.4"></rect><text x="1164" y="786" font-family="'IBM Plex Sans', sans-serif" font-size="13.6" fill="#e07b00" font-weight="600" text-anchor="start">outcome: detector codes</text><text x="1164" y="802" font-family="'IBM Plex Sans', sans-serif" font-size="13.6" fill="#e07b00" font-weight="600" text-anchor="start">among sampled ĉ ?</text><rect x="40" y="748" width="372" height="188" rx="8" fill="#ffffff" stroke="#d9d2cd" stroke-width="1.2"></rect><circle cx="66" cy="778" r="6" fill="#1f77b4" stroke="#1f1a17" stroke-width="1"></circle><text x="90" y="782" font-family="'IBM Plex Sans', sans-serif" font-size="13.6" fill="#33302d" text-anchor="start">representation read-out (probes / CAVs; SAE)</text><line x1="54" y1="806" x2="78" y2="806" stroke="#2e9e3e" stroke-width="2.4"></line><text x="90" y="810" font-family="'IBM Plex Sans', sans-serif" font-size="13.6" fill="#33302d" text-anchor="start">TopK sparse autoencoder (dictionary features)</text><circle cx="66" cy="834" r="6" fill="#d62728" stroke="#1f1a17" stroke-width="1"></circle><text x="90" y="838" font-family="'IBM Plex Sans', sans-serif" font-size="13.6" fill="#33302d" text-anchor="start">projection-ablation intervention (block 1)</text><line x1="54" y1="862" x2="78" y2="862" stroke="#9467bd" stroke-width="2" stroke-dasharray="6 4"></line><text x="90" y="866" font-family="'IBM Plex Sans', sans-serif" font-size="13.6" fill="#33302d" text-anchor="start">activation-patching cells</text><line x1="54" y1="890" x2="78" y2="890" stroke="#e07b00" stroke-width="2.4"></line><text x="90" y="894" font-family="'IBM Plex Sans', sans-serif" font-size="13.6" fill="#33302d" text-anchor="start">imagination outcome (detector-code occurrence)</text><rect x="54" y="911" width="24" height="14" rx="3" fill="#46627a"></rect><text x="90" y="922" font-family="'IBM Plex Sans', sans-serif" font-size="13.6" fill="#33302d" text-anchor="start">Δ-IRIS architecture (Micheli et al., redrawn)</text></svg>