<svg viewBox="0 96 1480 788" xmlns="http://www.w3.org/2000/svg" role="img" aria-label="Concept-direction ablation inside imagination"><rect x="0" y="96" width="1480" height="788" fill="#ffffff"></rect><rect x="78" y="178" width="1287" height="40" fill="#F4F6F8"></rect><rect x="78" y="258" width="1287" height="40" fill="#F4F6F8"></rect><rect x="78" y="338" width="1287" height="40" fill="#F4F6F8"></rect><rect x="78" y="418" width="1287" height="40" fill="#F4F6F8"></rect><rect x="78" y="498" width="1287" height="40" fill="#F4F6F8"></rect><rect x="78" y="578" width="1287" height="40" fill="#F4F6F8"></rect><rect x="78" y="658" width="1287" height="40" fill="#F4F6F8"></rect><rect x="78" y="738" width="1287" height="40" fill="#F4F6F8"></rect><text x="775" y="148" font-family="'IBM Plex Sans', sans-serif" font-size="20.4" fill="#222A33" font-weight="600" text-anchor="end">first imagined step</text><line x1="291.5811965811966" y1="178" x2="291.5811965811966" y2="778" stroke="#EBEEF2" stroke-width="1"></line><line x1="399.4871794871795" y1="178" x2="399.4871794871795" y2="778" stroke="#EBEEF2" stroke-width="1"></line><line x1="507.3931623931624" y1="178" x2="507.3931623931624" y2="778" stroke="#EBEEF2" stroke-width="1"></line><line x1="615.2991452991454" y1="178" x2="615.2991452991454" y2="778" stroke="#EBEEF2" stroke-width="1"></line><line x1="723.2051282051283" y1="178" x2="723.2051282051283" y2="778" stroke="#3A4754" stroke-width="1.8"></line><text x="723.2051282051283" y="169" font-family="'IBM Plex Sans', sans-serif" font-size="13.8" fill="#0B7D66" font-style="italic" text-anchor="middle">baseline</text><line x1="270" y1="790" x2="775" y2="790" stroke="#2E3742" stroke-width="1.2"></line><line x1="291.5811965811966" y1="790" x2="291.5811965811966" y2="795" stroke="#2E3742" stroke-width="1.2"></line><text x="291.5811965811966" y="814" font-family="'IBM Plex Sans', sans-serif" font-size="15.6" fill="#2E3742" text-anchor="middle">-1</text><line x1="399.4871794871795" y1="790" x2="399.4871794871795" y2="795" stroke="#2E3742" stroke-width="1.2"></line><text x="399.4871794871795" y="814" font-family="'IBM Plex Sans', sans-serif" font-size="15.6" fill="#2E3742" text-anchor="middle">-0.75</text><line x1="507.3931623931624" y1="790" x2="507.3931623931624" y2="795" stroke="#2E3742" stroke-width="1.2"></line><text x="507.3931623931624" y="814" font-family="'IBM Plex Sans', sans-serif" font-size="15.6" fill="#2E3742" text-anchor="middle">-0.5</text><line x1="615.2991452991454" y1="790" x2="615.2991452991454" y2="795" stroke="#2E3742" stroke-width="1.2"></line><text x="615.2991452991454" y="814" font-family="'IBM Plex Sans', sans-serif" font-size="15.6" fill="#2E3742" text-anchor="middle">-0.25</text><line x1="723.2051282051283" y1="790" x2="723.2051282051283" y2="795" stroke="#2E3742" stroke-width="1.2"></line><text x="723.2051282051283" y="814" font-family="'IBM Plex Sans', sans-serif" font-size="15.6" fill="#2E3742" text-anchor="middle">0</text><text x="522.5" y="842" font-family="'IBM Plex Sans', sans-serif" font-size="17.4" fill="#2E3742" text-anchor="middle">Δ P(first step) vs baseline</text><text x="522.5" y="862" font-family="'IBM Plex Sans', sans-serif" font-size="13.8" fill="#6B7480" font-style="italic" text-anchor="middle">left of 0 = ablation lowers achievement</text><text x="1365" y="148" font-family="'IBM Plex Sans', sans-serif" font-size="20.4" fill="#222A33" font-weight="600" text-anchor="end">within horizon</text><line x1="881.5811965811967" y1="178" x2="881.5811965811967" y2="778" stroke="#EBEEF2" stroke-width="1"></line><line x1="989.4871794871794" y1="178" x2="989.4871794871794" y2="778" stroke="#EBEEF2" stroke-width="1"></line><line x1="1097.3931623931624" y1="178" x2="1097.3931623931624" y2="778" stroke="#EBEEF2" stroke-width="1"></line><line x1="1205.2991452991455" y1="178" x2="1205.2991452991455" y2="778" stroke="#EBEEF2" stroke-width="1"></line><line x1="1313.2051282051284" y1="178" x2="1313.2051282051284" y2="778" stroke="#3A4754" stroke-width="1.8"></line><text x="1313.2051282051284" y="169" font-family="'IBM Plex Sans', sans-serif" font-size="13.8" fill="#0B7D66" font-style="italic" text-anchor="middle">baseline</text><line x1="860" y1="790" x2="1365" y2="790" stroke="#2E3742" stroke-width="1.2"></line><line x1="881.5811965811967" y1="790" x2="881.5811965811967" y2="795" stroke="#2E3742" stroke-width="1.2"></line><text x="881.5811965811967" y="814" font-family="'IBM Plex Sans', sans-serif" font-size="15.6" fill="#2E3742" text-anchor="middle">-1</text><line x1="989.4871794871794" y1="790" x2="989.4871794871794" y2="795" stroke="#2E3742" stroke-width="1.2"></line><text x="989.4871794871794" y="814" font-family="'IBM Plex Sans', sans-serif" font-size="15.6" fill="#2E3742" text-anchor="middle">-0.75</text><line x1="1097.3931623931624" y1="790" x2="1097.3931623931624" y2="795" stroke="#2E3742" stroke-width="1.2"></line><text x="1097.3931623931624" y="814" font-family="'IBM Plex Sans', sans-serif" font-size="15.6" fill="#2E3742" text-anchor="middle">-0.5</text><line x1="1205.2991452991455" y1="790" x2="1205.2991452991455" y2="795" stroke="#2E3742" stroke-width="1.2"></line><text x="1205.2991452991455" y="814" font-family="'IBM Plex Sans', sans-serif" font-size="15.6" fill="#2E3742" text-anchor="middle">-0.25</text><line x1="1313.2051282051284" y1="790" x2="1313.2051282051284" y2="795" stroke="#2E3742" stroke-width="1.2"></line><text x="1313.2051282051284" y="814" font-family="'IBM Plex Sans', sans-serif" font-size="15.6" fill="#2E3742" text-anchor="middle">0</text><text x="1112.5" y="842" font-family="'IBM Plex Sans', sans-serif" font-size="17.4" fill="#2E3742" text-anchor="middle">Δ P(within horizon) vs baseline</text><text x="1112.5" y="862" font-family="'IBM Plex Sans', sans-serif" font-size="13.8" fill="#6B7480" font-style="italic" text-anchor="middle">shaded band = baseline 95% CI (about 0)</text><text x="240" y="203" font-family="'IBM Plex Sans', sans-serif" font-size="16.8" fill="#222A33" text-anchor="end">collect wood</text><text x="240" y="243" font-family="'IBM Plex Sans', sans-serif" font-size="16.8" fill="#222A33" text-anchor="end">make stone sword</text><text x="240" y="283" font-family="'IBM Plex Sans', sans-serif" font-size="16.8" fill="#222A33" text-anchor="end">collect coal</text><text x="240" y="323" font-family="'IBM Plex Sans', sans-serif" font-size="16.8" fill="#222A33" text-anchor="end">collect sapling</text><text x="240" y="363" font-family="'IBM Plex Sans', sans-serif" font-size="16.8" fill="#222A33" text-anchor="end">collect iron</text><text x="240" y="403" font-family="'IBM Plex Sans', sans-serif" font-size="16.8" fill="#222A33" text-anchor="end">make stone pickaxe</text><text x="240" y="443" font-family="'IBM Plex Sans', sans-serif" font-size="16.8" fill="#222A33" text-anchor="end">place table</text><text x="240" y="483" font-family="'IBM Plex Sans', sans-serif" font-size="16.8" fill="#222A33" text-anchor="end">place plant</text><text x="240" y="523" font-family="'IBM Plex Sans', sans-serif" font-size="16.8" fill="#222A33" text-anchor="end">collect drink</text><text x="240" y="563" font-family="'IBM Plex Sans', sans-serif" font-size="16.8" fill="#222A33" text-anchor="end">collect stone</text><text x="240" y="603" font-family="'IBM Plex Sans', sans-serif" font-size="16.8" fill="#222A33" text-anchor="end">eat cow</text><text x="240" y="643" font-family="'IBM Plex Sans', sans-serif" font-size="16.8" fill="#222A33" text-anchor="end">make wood pickaxe</text><text x="240" y="683" font-family="'IBM Plex Sans', sans-serif" font-size="16.8" fill="#222A33" text-anchor="end">make wood sword</text><text x="240" y="723" font-family="'IBM Plex Sans', sans-serif" font-size="16.8" fill="#222A33" text-anchor="end">place furnace</text><text x="240" y="763" font-family="'IBM Plex Sans', sans-serif" font-size="16.8" fill="#222A33" text-anchor="end">place stone</text><rect x="723.2051282051283" y="182.5" width="0.6" height="31" rx="2" fill="#0B7D66" fill-opacity="0.1"></rect><line x1="723.2051282051283" y1="189" x2="291.5811965811966" y2="189" stroke="#1B4F8A" stroke-width="2" stroke-linecap="round"></line><circle cx="291.5811965811966" cy="189" r="4.3" fill="#1B4F8A" stroke="#ffffff" stroke-width="1.4"></circle><line x1="723.2051282051283" y1="198" x2="723.2051282051283" y2="198" stroke="#B23A8E" stroke-width="2" stroke-linecap="round"></line><circle cx="723.2051282051283" cy="198" r="4.3" fill="#B23A8E" stroke="#ffffff" stroke-width="1.4"></circle><line x1="723.2051282051283" y1="207" x2="723.2051282051283" y2="207" stroke="#7C828B" stroke-width="2" stroke-linecap="round"></line><circle cx="723.2051282051283" cy="207" r="4.3" fill="#7C828B" stroke="#ffffff" stroke-width="1.4"></circle><rect x="636.8803418803419" y="222.5" width="151.0683760683761" height="31" rx="2" fill="#0B7D66" fill-opacity="0.1"></rect><line x1="723.2051282051283" y1="229" x2="593.7179487179487" y2="229" stroke="#1B4F8A" stroke-width="2" stroke-linecap="round"></line><circle cx="593.7179487179487" cy="229" r="4.3" fill="#1B4F8A" stroke="#ffffff" stroke-width="1.4"></circle><line x1="723.2051282051283" y1="238" x2="744.7863247863248" y2="238" stroke="#B23A8E" stroke-width="2" stroke-linecap="round"></line><circle cx="744.7863247863248" cy="238" r="4.3" fill="#B23A8E" stroke="#ffffff" stroke-width="1.4"></circle><line x1="723.2051282051283" y1="247" x2="744.7863247863248" y2="247" stroke="#7C828B" stroke-width="2" stroke-linecap="round"></line><circle cx="744.7863247863248" cy="247" r="4.3" fill="#7C828B" stroke="#ffffff" stroke-width="1.4"></circle><rect x="680.0427350427351" y="262.5" width="64.74358974358972" height="31" rx="2" fill="#0B7D66" fill-opacity="0.1"></rect><line x1="723.2051282051283" y1="269" x2="615.2991452991454" y2="269" stroke="#1B4F8A" stroke-width="2" stroke-linecap="round"></line><circle cx="615.2991452991454" cy="269" r="4.3" fill="#1B4F8A" stroke="#ffffff" stroke-width="1.4"></circle><line x1="723.2051282051283" y1="278" x2="723.2051282051283" y2="278" stroke="#B23A8E" stroke-width="2" stroke-linecap="round"></line><circle cx="723.2051282051283" cy="278" r="4.3" fill="#B23A8E" stroke="#ffffff" stroke-width="1.4"></circle><line x1="723.2051282051283" y1="287" x2="723.2051282051283" y2="287" stroke="#7C828B" stroke-width="2" stroke-linecap="round"></line><circle cx="723.2051282051283" cy="287" r="4.3" fill="#7C828B" stroke="#ffffff" stroke-width="1.4"></circle><rect x="701.6239316239316" y="302.5" width="64.74358974358984" height="31" rx="2" fill="#0B7D66" fill-opacity="0.1"></rect><line x1="723.2051282051283" y1="309" x2="723.2051282051283" y2="309" stroke="#1B4F8A" stroke-width="2" stroke-linecap="round"></line><circle cx="723.2051282051283" cy="309" r="4.3" fill="#1B4F8A" stroke="#ffffff" stroke-width="1.4"></circle><line x1="723.2051282051283" y1="318" x2="744.7863247863248" y2="318" stroke="#B23A8E" stroke-width="2" stroke-linecap="round"></line><circle cx="744.7863247863248" cy="318" r="4.3" fill="#B23A8E" stroke="#ffffff" stroke-width="1.4"></circle><line x1="723.2051282051283" y1="327" x2="723.2051282051283" y2="327" stroke="#7C828B" stroke-width="2" stroke-linecap="round"></line><circle cx="723.2051282051283" cy="327" r="4.3" fill="#7C828B" stroke="#ffffff" stroke-width="1.4"></circle><rect x="658.4615384615386" y="342.5" width="107.9059829059828" height="31" rx="2" fill="#0B7D66" fill-opacity="0.1"></rect><line x1="723.2051282051283" y1="349" x2="658.4615384615386" y2="349" stroke="#1B4F8A" stroke-width="2" stroke-linecap="round"></line><circle cx="658.4615384615386" cy="349" r="4.3" fill="#1B4F8A" stroke="#ffffff" stroke-width="1.4"></circle><line x1="723.2051282051283" y1="358" x2="701.6239316239316" y2="358" stroke="#B23A8E" stroke-width="2" stroke-linecap="round"></line><circle cx="701.6239316239316" cy="358" r="4.3" fill="#B23A8E" stroke="#ffffff" stroke-width="1.4"></circle><line x1="723.2051282051283" y1="367" x2="744.7863247863248" y2="367" stroke="#7C828B" stroke-width="2" stroke-linecap="round"></line><circle cx="744.7863247863248" cy="367" r="4.3" fill="#7C828B" stroke="#ffffff" stroke-width="1.4"></circle><rect x="636.8803418803419" y="382.5" width="172.64957264957263" height="31" rx="2" fill="#0B7D66" fill-opacity="0.1"></rect><line x1="723.2051282051283" y1="389" x2="636.8803418803419" y2="389" stroke="#1B4F8A" stroke-width="2" stroke-linecap="round"></line><circle cx="636.8803418803419" cy="389" r="4.3" fill="#1B4F8A" stroke="#ffffff" stroke-width="1.4"></circle><line x1="723.2051282051283" y1="398" x2="723.2051282051283" y2="398" stroke="#B23A8E" stroke-width="2" stroke-linecap="round"></line><circle cx="723.2051282051283" cy="398" r="4.3" fill="#B23A8E" stroke="#ffffff" stroke-width="1.4"></circle><line x1="723.2051282051283" y1="407" x2="723.2051282051283" y2="407" stroke="#7C828B" stroke-width="2" stroke-linecap="round"></line><circle cx="723.2051282051283" cy="407" r="4.3" fill="#7C828B" stroke="#ffffff" stroke-width="1.4"></circle><rect x="723.2051282051283" y="422.5" width="0.6" height="31" rx="2" fill="#0B7D66" fill-opacity="0.1"></rect><line x1="723.2051282051283" y1="429" x2="680.0427350427351" y2="429" stroke="#1B4F8A" stroke-width="2" stroke-linecap="round"></line><circle cx="680.0427350427351" cy="429" r="4.3" fill="#1B4F8A" stroke="#ffffff" stroke-width="1.4"></circle><line x1="723.2051282051283" y1="438" x2="701.6239316239316" y2="438" stroke="#B23A8E" stroke-width="2" stroke-linecap="round"></line><circle cx="701.6239316239316" cy="438" r="4.3" fill="#B23A8E" stroke="#ffffff" stroke-width="1.4"></circle><line x1="723.2051282051283" y1="447" x2="701.6239316239316" y2="447" stroke="#7C828B" stroke-width="2" stroke-linecap="round"></line><circle cx="701.6239316239316" cy="447" r="4.3" fill="#7C828B" stroke="#ffffff" stroke-width="1.4"></circle><rect x="680.0427350427351" y="462.5" width="64.74358974358972" height="31" rx="2" fill="#0B7D66" fill-opacity="0.1"></rect><line x1="723.2051282051283" y1="469" x2="723.2051282051283" y2="469" stroke="#1B4F8A" stroke-width="2" stroke-linecap="round"></line><circle cx="723.2051282051283" cy="469" r="4.3" fill="#1B4F8A" stroke="#ffffff" stroke-width="1.4"></circle><line x1="723.2051282051283" y1="478" x2="723.2051282051283" y2="478" stroke="#B23A8E" stroke-width="2" stroke-linecap="round"></line><circle cx="723.2051282051283" cy="478" r="4.3" fill="#B23A8E" stroke="#ffffff" stroke-width="1.4"></circle><line x1="723.2051282051283" y1="487" x2="723.2051282051283" y2="487" stroke="#7C828B" stroke-width="2" stroke-linecap="round"></line><circle cx="723.2051282051283" cy="487" r="4.3" fill="#7C828B" stroke="#ffffff" stroke-width="1.4"></circle><rect x="636.8803418803419" y="502.5" width="172.64957264957263" height="31" rx="2" fill="#0B7D66" fill-opacity="0.1"></rect><line x1="723.2051282051283" y1="509" x2="723.2051282051283" y2="509" stroke="#1B4F8A" stroke-width="2" stroke-linecap="round"></line><circle cx="723.2051282051283" cy="509" r="4.3" fill="#1B4F8A" stroke="#ffffff" stroke-width="1.4"></circle><line x1="723.2051282051283" y1="518" x2="723.2051282051283" y2="518" stroke="#B23A8E" stroke-width="2" stroke-linecap="round"></line><circle cx="723.2051282051283" cy="518" r="4.3" fill="#B23A8E" stroke="#ffffff" stroke-width="1.4"></circle><line x1="723.2051282051283" y1="527" x2="701.6239316239316" y2="527" stroke="#7C828B" stroke-width="2" stroke-linecap="round"></line><circle cx="701.6239316239316" cy="527" r="4.3" fill="#7C828B" stroke="#ffffff" stroke-width="1.4"></circle><rect x="680.0427350427351" y="542.5" width="64.74358974358972" height="31" rx="2" fill="#0B7D66" fill-opacity="0.1"></rect><line x1="723.2051282051283" y1="549" x2="723.2051282051283" y2="549" stroke="#1B4F8A" stroke-width="2" stroke-linecap="round"></line><circle cx="723.2051282051283" cy="549" r="4.3" fill="#1B4F8A" stroke="#ffffff" stroke-width="1.4"></circle><line x1="723.2051282051283" y1="558" x2="723.2051282051283" y2="558" stroke="#B23A8E" stroke-width="2" stroke-linecap="round"></line><circle cx="723.2051282051283" cy="558" r="4.3" fill="#B23A8E" stroke="#ffffff" stroke-width="1.4"></circle><line x1="723.2051282051283" y1="567" x2="723.2051282051283" y2="567" stroke="#7C828B" stroke-width="2" stroke-linecap="round"></line><circle cx="723.2051282051283" cy="567" r="4.3" fill="#7C828B" stroke="#ffffff" stroke-width="1.4"></circle><rect x="636.8803418803419" y="582.5" width="172.64957264957263" height="31" rx="2" fill="#0B7D66" fill-opacity="0.1"></rect><line x1="723.2051282051283" y1="589" x2="744.7863247863248" y2="589" stroke="#1B4F8A" stroke-width="2" stroke-linecap="round"></line><circle cx="744.7863247863248" cy="589" r="4.3" fill="#1B4F8A" stroke="#ffffff" stroke-width="1.4"></circle><line x1="723.2051282051283" y1="598" x2="701.6239316239316" y2="598" stroke="#B23A8E" stroke-width="2" stroke-linecap="round"></line><circle cx="701.6239316239316" cy="598" r="4.3" fill="#B23A8E" stroke="#ffffff" stroke-width="1.4"></circle><line x1="723.2051282051283" y1="607" x2="744.7863247863248" y2="607" stroke="#7C828B" stroke-width="2" stroke-linecap="round"></line><circle cx="744.7863247863248" cy="607" r="4.3" fill="#7C828B" stroke="#ffffff" stroke-width="1.4"></circle><rect x="636.8803418803418" y="622.5" width="151.0683760683762" height="31" rx="2" fill="#0B7D66" fill-opacity="0.1"></rect><line x1="723.2051282051283" y1="629" x2="723.2051282051283" y2="629" stroke="#1B4F8A" stroke-width="2" stroke-linecap="round"></line><circle cx="723.2051282051283" cy="629" r="4.3" fill="#1B4F8A" stroke="#ffffff" stroke-width="1.4"></circle><line x1="723.2051282051283" y1="638" x2="723.2051282051283" y2="638" stroke="#B23A8E" stroke-width="2" stroke-linecap="round"></line><circle cx="723.2051282051283" cy="638" r="4.3" fill="#B23A8E" stroke="#ffffff" stroke-width="1.4"></circle><line x1="723.2051282051283" y1="647" x2="723.2051282051283" y2="647" stroke="#7C828B" stroke-width="2" stroke-linecap="round"></line><circle cx="723.2051282051283" cy="647" r="4.3" fill="#7C828B" stroke="#ffffff" stroke-width="1.4"></circle><rect x="658.4615384615386" y="662.5" width="107.9059829059828" height="31" rx="2" fill="#0B7D66" fill-opacity="0.1"></rect><line x1="723.2051282051283" y1="669" x2="723.2051282051283" y2="669" stroke="#1B4F8A" stroke-width="2" stroke-linecap="round"></line><circle cx="723.2051282051283" cy="669" r="4.3" fill="#1B4F8A" stroke="#ffffff" stroke-width="1.4"></circle><line x1="723.2051282051283" y1="678" x2="723.2051282051283" y2="678" stroke="#B23A8E" stroke-width="2" stroke-linecap="round"></line><circle cx="723.2051282051283" cy="678" r="4.3" fill="#B23A8E" stroke="#ffffff" stroke-width="1.4"></circle><line x1="723.2051282051283" y1="687" x2="723.2051282051283" y2="687" stroke="#7C828B" stroke-width="2" stroke-linecap="round"></line><circle cx="723.2051282051283" cy="687" r="4.3" fill="#7C828B" stroke="#ffffff" stroke-width="1.4"></circle><rect x="636.8803418803419" y="702.5" width="172.64957264957263" height="31" rx="2" fill="#0B7D66" fill-opacity="0.1"></rect><line x1="723.2051282051283" y1="709" x2="723.2051282051283" y2="709" stroke="#1B4F8A" stroke-width="2" stroke-linecap="round"></line><circle cx="723.2051282051283" cy="709" r="4.3" fill="#1B4F8A" stroke="#ffffff" stroke-width="1.4"></circle><line x1="723.2051282051283" y1="718" x2="723.2051282051283" y2="718" stroke="#B23A8E" stroke-width="2" stroke-linecap="round"></line><circle cx="723.2051282051283" cy="718" r="4.3" fill="#B23A8E" stroke="#ffffff" stroke-width="1.4"></circle><line x1="723.2051282051283" y1="727" x2="723.2051282051283" y2="727" stroke="#7C828B" stroke-width="2" stroke-linecap="round"></line><circle cx="723.2051282051283" cy="727" r="4.3" fill="#7C828B" stroke="#ffffff" stroke-width="1.4"></circle><rect x="680.0427350427351" y="742.5" width="64.74358974358972" height="31" rx="2" fill="#0B7D66" fill-opacity="0.1"></rect><line x1="723.2051282051283" y1="749" x2="615.2991452991454" y2="749" stroke="#1B4F8A" stroke-width="2" stroke-linecap="round"></line><circle cx="615.2991452991454" cy="749" r="4.3" fill="#1B4F8A" stroke="#ffffff" stroke-width="1.4"></circle><line x1="723.2051282051283" y1="758" x2="744.7863247863248" y2="758" stroke="#B23A8E" stroke-width="2" stroke-linecap="round"></line><circle cx="744.7863247863248" cy="758" r="4.3" fill="#B23A8E" stroke="#ffffff" stroke-width="1.4"></circle><line x1="723.2051282051283" y1="767" x2="744.7863247863248" y2="767" stroke="#7C828B" stroke-width="2" stroke-linecap="round"></line><circle cx="744.7863247863248" cy="767" r="4.3" fill="#7C828B" stroke="#ffffff" stroke-width="1.4"></circle><rect x="1313.2051282051284" y="182.5" width="0.6" height="31" rx="2" fill="#0B7D66" fill-opacity="0.1"></rect><line x1="1313.2051282051284" y1="189" x2="924.7435897435897" y2="189" stroke="#1B4F8A" stroke-width="2" stroke-linecap="round"></line><circle cx="924.7435897435897" cy="189" r="4.3" fill="#1B4F8A" stroke="#ffffff" stroke-width="1.4"></circle><line x1="1313.2051282051284" y1="198" x2="1313.2051282051284" y2="198" stroke="#B23A8E" stroke-width="2" stroke-linecap="round"></line><circle cx="1313.2051282051284" cy="198" r="4.3" fill="#B23A8E" stroke="#ffffff" stroke-width="1.4"></circle><line x1="1313.2051282051284" y1="207" x2="1313.2051282051284" y2="207" stroke="#7C828B" stroke-width="2" stroke-linecap="round"></line><circle cx="1313.2051282051284" cy="207" r="4.3" fill="#7C828B" stroke="#ffffff" stroke-width="1.4"></circle><rect x="1226.8803418803418" y="222.5" width="151.0683760683762" height="31" rx="2" fill="#0B7D66" fill-opacity="0.1"></rect><line x1="1313.2051282051284" y1="229" x2="1183.7179487179487" y2="229" stroke="#1B4F8A" stroke-width="2" stroke-linecap="round"></line><circle cx="1183.7179487179487" cy="229" r="4.3" fill="#1B4F8A" stroke="#ffffff" stroke-width="1.4"></circle><line x1="1313.2051282051284" y1="238" x2="1334.7863247863247" y2="238" stroke="#B23A8E" stroke-width="2" stroke-linecap="round"></line><circle cx="1334.7863247863247" cy="238" r="4.3" fill="#B23A8E" stroke="#ffffff" stroke-width="1.4"></circle><line x1="1313.2051282051284" y1="247" x2="1334.7863247863247" y2="247" stroke="#7C828B" stroke-width="2" stroke-linecap="round"></line><circle cx="1334.7863247863247" cy="247" r="4.3" fill="#7C828B" stroke="#ffffff" stroke-width="1.4"></circle><rect x="1270.042735042735" y="262.5" width="64.74358974358961" height="31" rx="2" fill="#0B7D66" fill-opacity="0.1"></rect><line x1="1313.2051282051284" y1="269" x2="1205.2991452991455" y2="269" stroke="#1B4F8A" stroke-width="2" stroke-linecap="round"></line><circle cx="1205.2991452991455" cy="269" r="4.3" fill="#1B4F8A" stroke="#ffffff" stroke-width="1.4"></circle><line x1="1313.2051282051284" y1="278" x2="1313.2051282051284" y2="278" stroke="#B23A8E" stroke-width="2" stroke-linecap="round"></line><circle cx="1313.2051282051284" cy="278" r="4.3" fill="#B23A8E" stroke="#ffffff" stroke-width="1.4"></circle><line x1="1313.2051282051284" y1="287" x2="1313.2051282051284" y2="287" stroke="#7C828B" stroke-width="2" stroke-linecap="round"></line><circle cx="1313.2051282051284" cy="287" r="4.3" fill="#7C828B" stroke="#ffffff" stroke-width="1.4"></circle><rect x="1226.8803418803418" y="302.5" width="172.64957264957275" height="31" rx="2" fill="#0B7D66" fill-opacity="0.1"></rect><line x1="1313.2051282051284" y1="309" x2="1226.8803418803418" y2="309" stroke="#1B4F8A" stroke-width="2" stroke-linecap="round"></line><circle cx="1226.8803418803418" cy="309" r="4.3" fill="#1B4F8A" stroke="#ffffff" stroke-width="1.4"></circle><line x1="1313.2051282051284" y1="318" x2="1270.042735042735" y2="318" stroke="#B23A8E" stroke-width="2" stroke-linecap="round"></line><circle cx="1270.042735042735" cy="318" r="4.3" fill="#B23A8E" stroke="#ffffff" stroke-width="1.4"></circle><line x1="1313.2051282051284" y1="327" x2="1356.3675213675215" y2="327" stroke="#7C828B" stroke-width="2" stroke-linecap="round"></line><circle cx="1356.3675213675215" cy="327" r="4.3" fill="#7C828B" stroke="#ffffff" stroke-width="1.4"></circle><rect x="1313.2051282051284" y="342.5" width="0.6" height="31" rx="2" fill="#0B7D66" fill-opacity="0.1"></rect><line x1="1313.2051282051284" y1="349" x2="1248.4615384615386" y2="349" stroke="#1B4F8A" stroke-width="2" stroke-linecap="round"></line><circle cx="1248.4615384615386" cy="349" r="4.3" fill="#1B4F8A" stroke="#ffffff" stroke-width="1.4"></circle><line x1="1313.2051282051284" y1="358" x2="1291.6239316239316" y2="358" stroke="#B23A8E" stroke-width="2" stroke-linecap="round"></line><circle cx="1291.6239316239316" cy="358" r="4.3" fill="#B23A8E" stroke="#ffffff" stroke-width="1.4"></circle><line x1="1313.2051282051284" y1="367" x2="1313.2051282051284" y2="367" stroke="#7C828B" stroke-width="2" stroke-linecap="round"></line><circle cx="1313.2051282051284" cy="367" r="4.3" fill="#7C828B" stroke="#ffffff" stroke-width="1.4"></circle><rect x="1226.8803418803418" y="382.5" width="151.0683760683762" height="31" rx="2" fill="#0B7D66" fill-opacity="0.1"></rect><line x1="1313.2051282051284" y1="389" x2="1270.042735042735" y2="389" stroke="#1B4F8A" stroke-width="2" stroke-linecap="round"></line><circle cx="1270.042735042735" cy="389" r="4.3" fill="#1B4F8A" stroke="#ffffff" stroke-width="1.4"></circle><line x1="1313.2051282051284" y1="398" x2="1313.2051282051284" y2="398" stroke="#B23A8E" stroke-width="2" stroke-linecap="round"></line><circle cx="1313.2051282051284" cy="398" r="4.3" fill="#B23A8E" stroke="#ffffff" stroke-width="1.4"></circle><line x1="1313.2051282051284" y1="407" x2="1313.2051282051284" y2="407" stroke="#7C828B" stroke-width="2" stroke-linecap="round"></line><circle cx="1313.2051282051284" cy="407" r="4.3" fill="#7C828B" stroke="#ffffff" stroke-width="1.4"></circle><rect x="1313.2051282051284" y="422.5" width="0.6" height="31" rx="2" fill="#0B7D66" fill-opacity="0.1"></rect><line x1="1313.2051282051284" y1="429" x2="1270.042735042735" y2="429" stroke="#1B4F8A" stroke-width="2" stroke-linecap="round"></line><circle cx="1270.042735042735" cy="429" r="4.3" fill="#1B4F8A" stroke="#ffffff" stroke-width="1.4"></circle><line x1="1313.2051282051284" y1="438" x2="1291.6239316239316" y2="438" stroke="#B23A8E" stroke-width="2" stroke-linecap="round"></line><circle cx="1291.6239316239316" cy="438" r="4.3" fill="#B23A8E" stroke="#ffffff" stroke-width="1.4"></circle><line x1="1313.2051282051284" y1="447" x2="1291.6239316239316" y2="447" stroke="#7C828B" stroke-width="2" stroke-linecap="round"></line><circle cx="1291.6239316239316" cy="447" r="4.3" fill="#7C828B" stroke="#ffffff" stroke-width="1.4"></circle><rect x="1313.2051282051284" y="462.5" width="0.6" height="31" rx="2" fill="#0B7D66" fill-opacity="0.1"></rect><line x1="1313.2051282051284" y1="469" x2="1291.6239316239316" y2="469" stroke="#1B4F8A" stroke-width="2" stroke-linecap="round"></line><circle cx="1291.6239316239316" cy="469" r="4.3" fill="#1B4F8A" stroke="#ffffff" stroke-width="1.4"></circle><line x1="1313.2051282051284" y1="478" x2="1291.6239316239316" y2="478" stroke="#B23A8E" stroke-width="2" stroke-linecap="round"></line><circle cx="1291.6239316239316" cy="478" r="4.3" fill="#B23A8E" stroke="#ffffff" stroke-width="1.4"></circle><line x1="1313.2051282051284" y1="487" x2="1291.6239316239316" y2="487" stroke="#7C828B" stroke-width="2" stroke-linecap="round"></line><circle cx="1291.6239316239316" cy="487" r="4.3" fill="#7C828B" stroke="#ffffff" stroke-width="1.4"></circle><rect x="1226.8803418803418" y="502.5" width="172.64957264957275" height="31" rx="2" fill="#0B7D66" fill-opacity="0.1"></rect><line x1="1313.2051282051284" y1="509" x2="1313.2051282051284" y2="509" stroke="#1B4F8A" stroke-width="2" stroke-linecap="round"></line><circle cx="1313.2051282051284" cy="509" r="4.3" fill="#1B4F8A" stroke="#ffffff" stroke-width="1.4"></circle><line x1="1313.2051282051284" y1="518" x2="1334.7863247863247" y2="518" stroke="#B23A8E" stroke-width="2" stroke-linecap="round"></line><circle cx="1334.7863247863247" cy="518" r="4.3" fill="#B23A8E" stroke="#ffffff" stroke-width="1.4"></circle><line x1="1313.2051282051284" y1="527" x2="1291.6239316239316" y2="527" stroke="#7C828B" stroke-width="2" stroke-linecap="round"></line><circle cx="1291.6239316239316" cy="527" r="4.3" fill="#7C828B" stroke="#ffffff" stroke-width="1.4"></circle><rect x="1313.2051282051284" y="542.5" width="0.6" height="31" rx="2" fill="#0B7D66" fill-opacity="0.1"></rect><line x1="1313.2051282051284" y1="549" x2="1313.2051282051284" y2="549" stroke="#1B4F8A" stroke-width="2" stroke-linecap="round"></line><circle cx="1313.2051282051284" cy="549" r="4.3" fill="#1B4F8A" stroke="#ffffff" stroke-width="1.4"></circle><line x1="1313.2051282051284" y1="558" x2="1313.2051282051284" y2="558" stroke="#B23A8E" stroke-width="2" stroke-linecap="round"></line><circle cx="1313.2051282051284" cy="558" r="4.3" fill="#B23A8E" stroke="#ffffff" stroke-width="1.4"></circle><line x1="1313.2051282051284" y1="567" x2="1313.2051282051284" y2="567" stroke="#7C828B" stroke-width="2" stroke-linecap="round"></line><circle cx="1313.2051282051284" cy="567" r="4.3" fill="#7C828B" stroke="#ffffff" stroke-width="1.4"></circle><rect x="1226.8803418803418" y="582.5" width="151.0683760683762" height="31" rx="2" fill="#0B7D66" fill-opacity="0.1"></rect><line x1="1313.2051282051284" y1="589" x2="1313.2051282051284" y2="589" stroke="#1B4F8A" stroke-width="2" stroke-linecap="round"></line><circle cx="1313.2051282051284" cy="589" r="4.3" fill="#1B4F8A" stroke="#ffffff" stroke-width="1.4"></circle><line x1="1313.2051282051284" y1="598" x2="1313.2051282051284" y2="598" stroke="#B23A8E" stroke-width="2" stroke-linecap="round"></line><circle cx="1313.2051282051284" cy="598" r="4.3" fill="#B23A8E" stroke="#ffffff" stroke-width="1.4"></circle><line x1="1313.2051282051284" y1="607" x2="1313.2051282051284" y2="607" stroke="#7C828B" stroke-width="2" stroke-linecap="round"></line><circle cx="1313.2051282051284" cy="607" r="4.3" fill="#7C828B" stroke="#ffffff" stroke-width="1.4"></circle><rect x="1226.8803418803418" y="622.5" width="151.0683760683762" height="31" rx="2" fill="#0B7D66" fill-opacity="0.1"></rect><line x1="1313.2051282051284" y1="629" x2="1313.2051282051284" y2="629" stroke="#1B4F8A" stroke-width="2" stroke-linecap="round"></line><circle cx="1313.2051282051284" cy="629" r="4.3" fill="#1B4F8A" stroke="#ffffff" stroke-width="1.4"></circle><line x1="1313.2051282051284" y1="638" x2="1313.2051282051284" y2="638" stroke="#B23A8E" stroke-width="2" stroke-linecap="round"></line><circle cx="1313.2051282051284" cy="638" r="4.3" fill="#B23A8E" stroke="#ffffff" stroke-width="1.4"></circle><line x1="1313.2051282051284" y1="647" x2="1313.2051282051284" y2="647" stroke="#7C828B" stroke-width="2" stroke-linecap="round"></line><circle cx="1313.2051282051284" cy="647" r="4.3" fill="#7C828B" stroke="#ffffff" stroke-width="1.4"></circle><rect x="1248.4615384615386" y="662.5" width="107.90598290598291" height="31" rx="2" fill="#0B7D66" fill-opacity="0.1"></rect><line x1="1313.2051282051284" y1="669" x2="1313.2051282051284" y2="669" stroke="#1B4F8A" stroke-width="2" stroke-linecap="round"></line><circle cx="1313.2051282051284" cy="669" r="4.3" fill="#1B4F8A" stroke="#ffffff" stroke-width="1.4"></circle><line x1="1313.2051282051284" y1="678" x2="1313.2051282051284" y2="678" stroke="#B23A8E" stroke-width="2" stroke-linecap="round"></line><circle cx="1313.2051282051284" cy="678" r="4.3" fill="#B23A8E" stroke="#ffffff" stroke-width="1.4"></circle><line x1="1313.2051282051284" y1="687" x2="1313.2051282051284" y2="687" stroke="#7C828B" stroke-width="2" stroke-linecap="round"></line><circle cx="1313.2051282051284" cy="687" r="4.3" fill="#7C828B" stroke="#ffffff" stroke-width="1.4"></circle><rect x="1226.8803418803418" y="702.5" width="172.64957264957275" height="31" rx="2" fill="#0B7D66" fill-opacity="0.1"></rect><line x1="1313.2051282051284" y1="709" x2="1313.2051282051284" y2="709" stroke="#1B4F8A" stroke-width="2" stroke-linecap="round"></line><circle cx="1313.2051282051284" cy="709" r="4.3" fill="#1B4F8A" stroke="#ffffff" stroke-width="1.4"></circle><line x1="1313.2051282051284" y1="718" x2="1313.2051282051284" y2="718" stroke="#B23A8E" stroke-width="2" stroke-linecap="round"></line><circle cx="1313.2051282051284" cy="718" r="4.3" fill="#B23A8E" stroke="#ffffff" stroke-width="1.4"></circle><line x1="1313.2051282051284" y1="727" x2="1313.2051282051284" y2="727" stroke="#7C828B" stroke-width="2" stroke-linecap="round"></line><circle cx="1313.2051282051284" cy="727" r="4.3" fill="#7C828B" stroke="#ffffff" stroke-width="1.4"></circle><rect x="1313.2051282051284" y="742.5" width="0.6" height="31" rx="2" fill="#0B7D66" fill-opacity="0.1"></rect><line x1="1313.2051282051284" y1="749" x2="1313.2051282051284" y2="749" stroke="#1B4F8A" stroke-width="2" stroke-linecap="round"></line><circle cx="1313.2051282051284" cy="749" r="4.3" fill="#1B4F8A" stroke="#ffffff" stroke-width="1.4"></circle><line x1="1313.2051282051284" y1="758" x2="1313.2051282051284" y2="758" stroke="#B23A8E" stroke-width="2" stroke-linecap="round"></line><circle cx="1313.2051282051284" cy="758" r="4.3" fill="#B23A8E" stroke="#ffffff" stroke-width="1.4"></circle><line x1="1313.2051282051284" y1="767" x2="1313.2051282051284" y2="767" stroke="#7C828B" stroke-width="2" stroke-linecap="round"></line><circle cx="1313.2051282051284" cy="767" r="4.3" fill="#7C828B" stroke="#ffffff" stroke-width="1.4"></circle><line x1="86" y1="103" x2="86" y2="115" stroke="#0B7D66" stroke-width="2.4"></line><text x="101" y="112" font-family="'IBM Plex Sans', sans-serif" font-size="15.6" fill="#222A33" text-anchor="start">baseline (0 line)</text><line x1="274.79999999999995" y1="109" x2="290.79999999999995" y2="109" stroke="#1B4F8A" stroke-width="2"></line><circle cx="282.79999999999995" cy="109" r="4.3" fill="#1B4F8A" stroke="#ffffff" stroke-width="1.4"></circle><text x="297.79999999999995" y="112" font-family="'IBM Plex Sans', sans-serif" font-size="15.6" fill="#222A33" text-anchor="start">SAE-direction ablation</text><line x1="513.5999999999999" y1="109" x2="529.5999999999999" y2="109" stroke="#B23A8E" stroke-width="2"></line><circle cx="521.5999999999999" cy="109" r="4.3" fill="#B23A8E" stroke="#ffffff" stroke-width="1.4"></circle><text x="536.5999999999999" y="112" font-family="'IBM Plex Sans', sans-serif" font-size="15.6" fill="#222A33" text-anchor="start">CAV-direction ablation</text><line x1="752.3999999999999" y1="109" x2="768.3999999999999" y2="109" stroke="#7C828B" stroke-width="2"></line><circle cx="760.3999999999999" cy="109" r="4.3" fill="#7C828B" stroke="#ffffff" stroke-width="1.4"></circle><text x="775.3999999999999" y="112" font-family="'IBM Plex Sans', sans-serif" font-size="15.6" fill="#222A33" text-anchor="start">random-direction ablation</text></svg>